<svg width="23" height="21" viewBox="0 0 23 21" fill="none" xmlns="http://www.w3.org/2000/svg">
<path d="M18.333 16.5717V2.97391C18.333 2.68174 18.0002 2.51424 17.7655 2.6883C17.1527 3.14285 16.41 3.38826 15.647 3.38826H5.11079V2.44442C5.11079 1.83077 4.61332 1.33331 3.99967 1.33331C2.52691 1.33331 1.33301 2.52722 1.33301 3.99998V4.13551V15.3443C1.33301 16.9951 2.67123 18.3333 4.32202 18.3333H15.873C16.4933 18.3333 17.1014 18.1605 17.6291 17.8344C18.0667 17.5639 18.333 17.0861 18.333 16.5717Z" fill="#D9D9D9"/>
<path d="M18.333 16.5717V2.97391C18.333 2.68174 18.0002 2.51424 17.7655 2.6883C17.1527 3.14285 16.41 3.38826 15.647 3.38826H5.11079V2.44442C5.11079 1.83077 4.61332 1.33331 3.99967 1.33331C2.52691 1.33331 1.33301 2.52722 1.33301 3.99998V4.13551V15.3443C1.33301 16.9951 2.67123 18.3333 4.32202 18.3333H15.873C16.4933 18.3333 17.1014 18.1605 17.6291 17.8344C18.0667 17.5639 18.333 17.0861 18.333 16.5717Z" fill="url(#paint0_linear_51_5336)"/>
<path d="M18.333 16.5717V2.97391C18.333 2.68174 18.0002 2.51424 17.7655 2.6883C17.1527 3.14285 16.41 3.38826 15.647 3.38826H5.11079V2.44442C5.11079 1.83077 4.61332 1.33331 3.99967 1.33331C2.52691 1.33331 1.33301 2.52722 1.33301 3.99998V4.13551V15.3443C1.33301 16.9951 2.67123 18.3333 4.32202 18.3333H15.873C16.4933 18.3333 17.1014 18.1605 17.6291 17.8344C18.0667 17.5639 18.333 17.0861 18.333 16.5717Z" fill="url(#paint1_linear_51_5336)" fill-opacity="0.3" style="mix-blend-mode:darken"/>
<path d="M18.333 16.5717V2.97391C18.333 2.68174 18.0002 2.51424 17.7655 2.6883C17.1527 3.14285 16.41 3.38826 15.647 3.38826H5.11079V2.44442C5.11079 1.83077 4.61332 1.33331 3.99967 1.33331C2.52691 1.33331 1.33301 2.52722 1.33301 3.99998V4.13551V15.3443C1.33301 16.9951 2.67123 18.3333 4.32202 18.3333H15.873C16.4933 18.3333 17.1014 18.1605 17.6291 17.8344C18.0667 17.5639 18.333 17.0861 18.333 16.5717Z" fill="url(#paint2_linear_51_5336)" style="mix-blend-mode:soft-light"/>
<path d="M18.333 16.5717V2.97391C18.333 2.68174 18.0002 2.51424 17.7655 2.6883C17.1527 3.14285 16.41 3.38826 15.647 3.38826H5.11079V2.44442C5.11079 1.83077 4.61332 1.33331 3.99967 1.33331C2.52691 1.33331 1.33301 2.52722 1.33301 3.99998V4.13551V15.3443C1.33301 16.9951 2.67123 18.3333 4.32202 18.3333H15.873C16.4933 18.3333 17.1014 18.1605 17.6291 17.8344C18.0667 17.5639 18.333 17.0861 18.333 16.5717Z" fill="url(#paint3_angular_51_5336)" fill-opacity="0.1" style="mix-blend-mode:multiply"/>
<path d="M18.333 16.5717V2.97391C18.333 2.68174 18.0002 2.51424 17.7655 2.6883C17.1527 3.14285 16.41 3.38826 15.647 3.38826H5.11079V2.44442C5.11079 1.83077 4.61332 1.33331 3.99967 1.33331C2.52691 1.33331 1.33301 2.52722 1.33301 3.99998V4.13551V15.3443C1.33301 16.9951 2.67123 18.3333 4.32202 18.3333H15.873C16.4933 18.3333 17.1014 18.1605 17.6291 17.8344C18.0667 17.5639 18.333 17.0861 18.333 16.5717Z" stroke="black" stroke-width="2"/>
<path d="M5.11133 16.2784H8.25444M9.04022 16.2784H10.0224M5.11133 17.0256H7.07577" stroke="#001C58" stroke-linecap="round" stroke-linejoin="round"/>
<path d="M4.50373 13.979C4.68779 13.9706 4.83268 13.8189 4.83268 13.6346V3.33149V2.49906C4.83268 2.03932 4.45999 1.66663 4.00025 1.66663H3.90131C2.66679 1.66663 1.66602 2.6674 1.66602 3.90192V4.845L1.66602 15.6666V15.6666C2.0889 14.6939 3.02845 14.0466 4.08799 13.9981L4.50373 13.979Z" fill="url(#paint4_linear_51_5336)"/>
<path d="M13.7503 15.1575H7.04883C6.43016 15.1575 5.95993 14.6014 6.06273 13.9913L6.18591 13.2603C6.22295 13.0405 6.34968 12.846 6.53577 12.7233C6.71191 12.6072 6.83528 12.4264 6.87921 12.22L7.31017 10.1954C7.4675 9.45634 7.20036 8.6911 6.61721 8.21049C6.50049 8.11429 6.43288 7.97095 6.43288 7.81969V7.19043C6.43288 6.63815 6.88059 6.19043 7.43288 6.19043H8.23459C8.5957 6.19043 8.88843 6.48317 8.88843 6.84428V7.30923C8.88843 7.41355 8.973 7.49812 9.07732 7.49812C9.18164 7.49812 9.26621 7.41355 9.26621 7.30923V6.84428C9.26621 6.48317 9.55895 6.19043 9.92006 6.19043H10.6901C11.0513 6.19043 11.344 6.48317 11.344 6.84428V7.30923C11.344 7.41355 11.4286 7.49812 11.5329 7.49812C11.6372 7.49812 11.7218 7.41355 11.7218 7.30923V6.84428C11.7218 6.48317 12.0145 6.19043 12.3756 6.19043H13.3662C13.9185 6.19043 14.3662 6.63814 14.3662 7.19043V7.81969C14.3662 7.97095 14.2986 8.11429 14.1819 8.21049C13.5987 8.6911 13.3316 9.45634 13.4889 10.1954L13.9199 12.22C13.9638 12.4264 14.0872 12.6072 14.2633 12.7233C14.4494 12.846 14.5761 13.0405 14.6132 13.2603L14.7364 13.9913C14.8392 14.6014 14.3689 15.1575 13.7503 15.1575Z" stroke="url(#paint5_angular_51_5336)" stroke-width="1.5"/>
<path d="M19.8051 14.4059V13.1579C19.8051 12.4109 19.1995 11.8053 18.4525 11.8053H18.3906C17.6435 11.8053 17.0379 12.4109 17.0379 13.1579V14.4059H15.7899C15.0429 14.4059 14.4373 15.0115 14.4373 15.7585V15.8205C14.4373 16.5675 15.0429 17.1731 15.7899 17.1731H17.0379V18.4211C17.0379 19.1681 17.6435 19.7737 18.3906 19.7737H18.4525C19.1995 19.7737 19.8051 19.1681 19.8051 18.4211V17.1731H21.0531C21.8001 17.1731 22.4057 16.5675 22.4057 15.8205V15.7585C22.4057 15.0115 21.8001 14.4059 21.0531 14.4059H19.8051Z" fill="#B3FD09" stroke="black" stroke-width="0.6"/>
<g filter="url(#filter0_i_51_5336)">
<path d="M19.5051 14.7059V13.1579C19.5051 12.5766 19.0338 12.1053 18.4525 12.1053H18.3906C17.8092 12.1053 17.3379 12.5766 17.3379 13.1579V14.7059H15.7899C15.2086 14.7059 14.7373 15.1772 14.7373 15.7585V15.8205C14.7373 16.4018 15.2086 16.8731 15.7899 16.8731H17.3379V18.4211C17.3379 19.0024 17.8092 19.4737 18.3906 19.4737H18.4525C19.0338 19.4737 19.5051 19.0024 19.5051 18.4211V16.8731H21.0531C21.6344 16.8731 22.1057 16.4018 22.1057 15.8205V15.7585C22.1057 15.1772 21.6344 14.7059 21.0531 14.7059H19.5051Z" fill="#B3FD09"/>
</g>
<defs>
<filter id="filter0_i_51_5336" x="14.7373" y="12.1053" width="7.36816" height="7.36841" filterUnits="userSpaceOnUse" color-interpolation-filters="sRGB">
<feFlood flood-opacity="0" result="BackgroundImageFix"/>
<feBlend mode="normal" in="SourceGraphic" in2="BackgroundImageFix" result="shape"/>
<feColorMatrix in="SourceAlpha" type="matrix" values="0 0 0 0 0 0 0 0 0 0 0 0 0 0 0 0 0 0 127 0" result="hardAlpha"/>
<feOffset dy="1"/>
<feComposite in2="hardAlpha" operator="arithmetic" k2="-1" k3="1"/>
<feColorMatrix type="matrix" values="0 0 0 0 0 0 0 0 0 0 0 0 0 0 0 0 0 0 0.5 0"/>
<feBlend mode="normal" in2="shape" result="effect1_innerShadow_51_5336"/>
</filter>
<linearGradient id="paint0_linear_51_5336" x1="6.81079" y1="2.08057" x2="15.5368" y2="18.6003" gradientUnits="userSpaceOnUse">
<stop stop-color="#62B5FF"/>
<stop offset="1" stop-color="#2052B0"/>
</linearGradient>
<linearGradient id="paint1_linear_51_5336" x1="2.08856" y1="12.3553" x2="7.3773" y2="12.1643" gradientUnits="userSpaceOnUse">
<stop stop-color="#1F4096"/>
<stop offset="1" stop-color="#4684D8" stop-opacity="0"/>
</linearGradient>
<linearGradient id="paint2_linear_51_5336" x1="2.46634" y1="15.5311" x2="11.4927" y2="10.9678" gradientUnits="userSpaceOnUse">
<stop/>
<stop offset="0.104032"/>
<stop offset="1" stop-opacity="0"/>
</linearGradient>
<radialGradient id="paint3_angular_51_5336" cx="0" cy="0" r="1" gradientUnits="userSpaceOnUse" gradientTransform="translate(10.2108 10.1135) rotate(-132.673) scale(8.63892 8.55217)">
<stop stop-opacity="0"/>
<stop offset="0.9999"/>
<stop offset="1"/>
</radialGradient>
<linearGradient id="paint4_linear_51_5336" x1="1.66602" y1="7.41798" x2="5.12056" y2="7.41798" gradientUnits="userSpaceOnUse">
<stop stop-color="#519DE0"/>
<stop offset="0.17" stop-color="#5AAEF9"/>
<stop offset="0.49953" stop-color="#457EDC"/>
<stop offset="0.735" stop-color="#3D70D2"/>
<stop offset="0.845" stop-color="#2C4EB7"/>
</linearGradient>
<radialGradient id="paint5_angular_51_5336" cx="0" cy="0" r="1" gradientUnits="userSpaceOnUse" gradientTransform="translate(10.3995 10.6739) rotate(-130.739) scale(6.657 6.66831)">
<stop stop-color="white"/>
<stop offset="0.335" stop-color="white"/>
<stop offset="0.735" stop-color="white" stop-opacity="0.25"/>
<stop offset="1" stop-color="white" stop-opacity="0.25"/>
</radialGradient>
</defs>
</svg>
