<svg width="23" height="22" viewBox="0 0 23 22" fill="none" xmlns="http://www.w3.org/2000/svg">
<path d="M11.3327 20.6667C16.6714 20.6667 20.9993 16.3388 20.9993 11C20.9993 5.66129 16.6714 1.33337 11.3327 1.33337C5.99393 1.33337 1.66602 5.66129 1.66602 11C1.66602 16.3388 5.99393 20.6667 11.3327 20.6667Z" fill="#FFD540" stroke="black" stroke-width="2"/>
<g style="mix-blend-mode:hard-light">
<path d="M20.0056 11C20.0056 15.788 16.1241 19.6727 11.3328 19.6727C9.15974 19.6727 7.17319 18.8709 5.65137 17.552C7.02591 18.2818 8.59355 18.6909 10.2561 18.6909C15.1325 18.6909 19.1841 15.1596 19.9925 10.5156C20.0023 10.676 20.0056 10.8364 20.0056 11Z" fill="#F15A24"/>
</g>
<g style="mix-blend-mode:soft-light">
<path d="M14.4153 2.89345C13.9997 2.85091 13.5775 2.828 13.152 2.828C8.76331 2.828 4.93748 5.24 2.93457 8.81382C3.90003 5.08291 7.29385 2.32727 11.3291 2.32727C12.4157 2.32727 13.4564 2.52691 14.4153 2.89345Z" fill="white"/>
</g>
<path d="M11.405 17.9448C15.2007 17.9448 18.2777 14.8677 18.2777 11.072C18.2777 7.27631 15.2007 4.19928 11.405 4.19928C7.60926 4.19928 4.53223 7.27631 4.53223 11.072C4.53223 14.8677 7.60926 17.9448 11.405 17.9448Z" fill="#DB3B3B" stroke="#FCEE21"/>
<path d="M17.1456 14.5509C17.6562 13.6051 17.9442 12.5218 17.9442 11.3698C17.9442 7.6651 14.9431 4.66073 11.2351 4.66073C8.81 4.66073 6.686 5.94692 5.50781 7.87456C6.64345 5.78328 8.85909 4.36292 11.4053 4.36292C15.1133 4.36292 18.1144 7.36728 18.1144 11.072C18.1144 12.3451 17.7609 13.5364 17.1456 14.5509Z" fill="#EC9140"/>
<g filter="url(#filter0_i_51_5333)">
<path d="M11.1499 16.256C11.3953 16.4524 11.7423 16.4524 11.9877 16.256C13.1921 15.2971 16.5695 12.6036 16.5695 10.6433C16.5695 8.46364 15.4895 7.51782 14.0823 7.51782C12.9957 7.51782 12.0335 8.12328 11.7488 8.48982C11.6572 8.60764 11.4739 8.60764 11.3823 8.48982C11.0975 8.12 10.1353 7.51782 9.0488 7.51782C7.82807 7.51782 6.56152 8.264 6.56152 10.6433C6.56152 12.6462 9.94225 15.2971 11.1433 16.256H11.1499Z" fill="#FECA04"/>
</g>
<path d="M10.8314 16.6468L10.9682 16.756H11.0007C11.4099 16.9837 11.9231 16.9474 12.2992 16.6472C12.9002 16.1686 14.0703 15.2366 15.0913 14.1711C15.6017 13.6385 16.0875 13.0596 16.4484 12.4752C16.8045 11.8985 17.0695 11.2681 17.0695 10.6433C17.0695 9.47626 16.7804 8.56218 16.2297 7.93368C15.672 7.29722 14.9023 7.01782 14.0823 7.01782C13.4486 7.01782 12.8626 7.19344 12.399 7.41537C12.0728 7.57152 11.781 7.76335 11.5661 7.95808C11.3506 7.76198 11.0581 7.56988 10.7317 7.41397C10.2678 7.19236 9.68193 7.01782 9.0488 7.01782C8.33906 7.01782 7.57418 7.23612 6.98842 7.84027C6.40238 8.44471 6.06152 9.36728 6.06152 10.6433C6.06152 11.2771 6.32541 11.9122 6.68278 12.4926C7.04439 13.0798 7.53104 13.6578 8.04197 14.1881C9.01675 15.1997 10.1278 16.0857 10.7457 16.5784C10.7754 16.6021 10.804 16.6249 10.8314 16.6468Z" stroke="#A70602" stroke-opacity="0.84" style="mix-blend-mode:plus-darker"/>
<path d="M16.5693 10.6433C16.5693 12.6036 13.1886 15.2971 11.9875 16.256C11.7421 16.4523 11.3951 16.4523 11.1497 16.256C10.5999 15.8174 10.4591 15.6734 10.9762 16.0858C11.2217 16.2822 11.5686 16.2822 11.8141 16.0858C13.0151 15.1269 16.3959 12.4334 16.3959 10.4731C16.3959 9.9167 16.3566 9.40616 16.2519 9.02652C16.2224 8.89888 16.1668 8.79743 16.1472 8.68616C16.4155 9.17379 16.5693 9.82179 16.5693 10.6433Z" fill="#FFF228"/>
<path d="M16.1018 8.60107C15.6698 8.13962 15.0742 7.92689 14.4066 7.92689C13.3167 7.92689 12.5051 8.54216 12.2073 8.90216C12.0011 9.15089 11.5167 8.98726 11.4055 8.8858C10.9833 8.49635 10.1585 7.92689 9.30109 7.92689C8.85927 7.92689 8.48291 8.02507 8.09018 8.26725C8.18182 8.49307 8.14582 8.79089 7.97563 9.04616C7.76945 9.3538 7.42909 9.50762 7.15091 9.43235C6.984 9.86107 6.88581 10.3945 6.88581 11.0556C6.88581 11.6774 7.20981 12.3614 7.69745 13.0356C7.03963 12.2273 6.56836 11.3894 6.56836 10.64C6.56836 8.26071 7.83491 7.51453 9.05564 7.51453C10.1422 7.51453 11.1044 8.11998 11.3891 8.48653C11.4807 8.60762 11.6607 8.60762 11.7524 8.48653C12.0404 8.11998 12.9993 7.51453 14.0858 7.51453C14.9302 7.51453 15.66 7.85489 16.1018 8.60107Z" fill="white"/>
<path d="M18.6474 6.33964C13.3129 8.75492 8.82271 12.7084 5.74307 17.6306C3.85798 16.04 2.66016 13.6575 2.66016 11C2.66016 6.20873 6.54489 2.32727 11.3329 2.32727C14.4093 2.32727 17.1093 3.92436 18.6474 6.33964Z" fill="url(#paint0_radial_51_5333)" style="mix-blend-mode:soft-light"/>
<path d="M20.807 15.9322H19.559V14.6842C19.559 13.9372 18.9534 13.3316 18.2064 13.3316H18.1445C17.3974 13.3316 16.7918 13.9372 16.7918 14.6842V15.9322H15.5438C14.7968 15.9322 14.1912 16.5378 14.1912 17.2848V17.3468C14.1912 18.0938 14.7968 18.6994 15.5438 18.6994H16.7918V19.9474C16.7918 20.6944 17.3974 21.3 18.1445 21.3H18.2064C18.9534 21.3 19.559 20.6944 19.559 19.9474V18.6994H20.807C21.554 18.6994 22.1596 18.0938 22.1596 17.3468V17.2848C22.1596 16.5378 21.554 15.9322 20.807 15.9322Z" fill="#B3FD09" stroke="black" stroke-width="0.6"/>
<g filter="url(#filter1_i_51_5333)">
<path d="M19.259 16.2322V14.6842C19.259 14.1029 18.7877 13.6316 18.2064 13.6316H18.1445C17.5631 13.6316 17.0918 14.1029 17.0918 14.6842V16.2322H15.5438C14.9625 16.2322 14.4912 16.7035 14.4912 17.2848V17.3468C14.4912 17.9281 14.9625 18.3994 15.5438 18.3994H17.0918V19.9474C17.0918 20.5287 17.5631 21 18.1445 21H18.2064C18.7877 21 19.259 20.5287 19.259 19.9474V18.3994H20.807C21.3884 18.3994 21.8596 17.9281 21.8596 17.3468V17.2848C21.8596 16.7035 21.3884 16.2322 20.807 16.2322H19.259Z" fill="#B3FD09"/>
</g>
<defs>
<filter id="filter0_i_51_5333" x="5.56152" y="6.51782" width="12.0078" height="10.8854" filterUnits="userSpaceOnUse" color-interpolation-filters="sRGB">
<feFlood flood-opacity="0" result="BackgroundImageFix"/>
<feBlend mode="normal" in="SourceGraphic" in2="BackgroundImageFix" result="shape"/>
<feColorMatrix in="SourceAlpha" type="matrix" values="0 0 0 0 0 0 0 0 0 0 0 0 0 0 0 0 0 0 127 0" result="hardAlpha"/>
<feOffset dx="-2" dy="-4"/>
<feComposite in2="hardAlpha" operator="arithmetic" k2="-1" k3="1"/>
<feColorMatrix type="matrix" values="0 0 0 0 0.523014 0 0 0 0 0.390127 0 0 0 0 0.143335 0 0 0 1 0"/>
<feBlend mode="hard-light" in2="shape" result="effect1_innerShadow_51_5333"/>
</filter>
<filter id="filter1_i_51_5333" x="14.4912" y="13.6316" width="7.36816" height="7.36841" filterUnits="userSpaceOnUse" color-interpolation-filters="sRGB">
<feFlood flood-opacity="0" result="BackgroundImageFix"/>
<feBlend mode="normal" in="SourceGraphic" in2="BackgroundImageFix" result="shape"/>
<feColorMatrix in="SourceAlpha" type="matrix" values="0 0 0 0 0 0 0 0 0 0 0 0 0 0 0 0 0 0 127 0" result="hardAlpha"/>
<feOffset dy="1"/>
<feComposite in2="hardAlpha" operator="arithmetic" k2="-1" k3="1"/>
<feColorMatrix type="matrix" values="0 0 0 0 0 0 0 0 0 0 0 0 0 0 0 0 0 0 0.5 0"/>
<feBlend mode="normal" in2="shape" result="effect1_innerShadow_51_5333"/>
</filter>
<radialGradient id="paint0_radial_51_5333" cx="0" cy="0" r="1" gradientUnits="userSpaceOnUse" gradientTransform="translate(11.4482 12.5858) rotate(-108.14) scale(11.5593 24.8746)">
<stop offset="0.416941" stop-color="white"/>
<stop offset="0.654304" stop-color="white" stop-opacity="0"/>
</radialGradient>
</defs>
</svg>
