<svg width="22" height="20" viewBox="0 0 22 20" fill="none" xmlns="http://www.w3.org/2000/svg">
<g clip-path="url(#clip0_51_5339)">
<path d="M10.9742 0.456237L10.666 0.281628L10.3579 0.456236L2.85788 4.70624L2.5101 4.90331L2.54316 5.30169L3.33149 14.8017L3.35809 15.1222L3.63438 15.2869L10.3461 19.2869L10.666 19.4776L10.986 19.2869L17.6977 15.2869L17.974 15.1222L18.0006 14.8017L18.7889 5.30168L18.8219 4.90331L18.4741 4.70624L10.9742 0.456237Z" fill="black" stroke="black" stroke-width="1.25"/>
<path d="M10.666 1L3.16602 5.25L6.20549 6.75L10.666 4.25V1Z" fill="#FAD9F8"/>
<path d="M3.16602 5.25L3.91602 14.75L6.66602 13L6.20549 6.75L3.16602 5.25Z" fill="#F49DF4"/>
<path d="M18.166 5.25L10.666 1V4.25L15.1265 6.75L18.166 5.25Z" fill="#F49DF4"/>
<path d="M17.416 14.75L18.166 5.25L15.1265 6.75L14.666 13L17.416 14.75Z" fill="#D35BFA"/>
<path d="M10.666 18.75L17.416 14.75L14.666 13L10.666 15.25V18.75Z" fill="#A02CDD"/>
<path d="M3.91602 14.75L10.666 18.75V15.25L6.66602 13L3.91602 14.75Z" fill="#BB55F1"/>
<path d="M10.666 4.25L6.20549 6.75L6.66602 13L10.666 15.25L14.666 13L15.1265 6.75L10.666 4.25Z" fill="#E79CF7"/>
<g style="mix-blend-mode:soft-light">
<path fill-rule="evenodd" clip-rule="evenodd" d="M18.1646 5.25543L17.415 14.75L10.6651 18.75L6.33203 16.1823C8.98516 11.3822 13.1408 7.52843 18.1646 5.25543Z" fill="black"/>
</g>
<path fill-rule="evenodd" clip-rule="evenodd" d="M5.91602 6.75L3.16602 5.25L6.04102 6.5L10.541 4L10.666 1L10.791 4L15.291 6.5L18.166 5.25L15.541 6.75L15.1658 13.0217L17.416 14.75L14.8974 13.4435L10.916 15.625L10.666 18.75L10.416 15.625L6.43467 13.4435L3.91602 14.75L6.29102 13L5.91602 6.75ZM6.66602 13L10.666 15.25L14.666 13L15.041 6.75L10.666 4.25L6.29102 6.75L6.66602 13Z" fill="white"/>
</g>
<path d="M18.3657 13.8795V12.6315C18.3657 11.8845 17.7601 11.2789 17.013 11.2789H16.9511C16.2041 11.2789 15.5985 11.8845 15.5985 12.6315V13.8795H14.3505C13.6034 13.8795 12.9979 14.4851 12.9979 15.2322V15.2941C12.9979 16.0411 13.6034 16.6467 14.3505 16.6467H15.5985V17.8947C15.5985 18.6417 16.2041 19.2473 16.9511 19.2473H17.013C17.7601 19.2473 18.3657 18.6417 18.3657 17.8947V16.6467H19.6136C20.3607 16.6467 20.9663 16.0411 20.9663 15.2941V15.2322C20.9663 14.4851 20.3607 13.8795 19.6136 13.8795H18.3657Z" fill="#B3FD09" stroke="black" stroke-width="0.6"/>
<g filter="url(#filter0_i_51_5339)">
<path d="M18.0657 14.1795V12.6315C18.0657 12.0502 17.5944 11.5789 17.013 11.5789H16.9511C16.3698 11.5789 15.8985 12.0502 15.8985 12.6315V14.1795H14.3505C13.7691 14.1795 13.2979 14.6508 13.2979 15.2322V15.2941C13.2979 15.8754 13.7691 16.3467 14.3505 16.3467H15.8985V17.8947C15.8985 18.4761 16.3698 18.9473 16.9511 18.9473H17.013C17.5944 18.9473 18.0657 18.4761 18.0657 17.8947V16.3467H19.6136C20.195 16.3467 20.6663 15.8754 20.6663 15.2941V15.2322C20.6663 14.6508 20.195 14.1795 19.6136 14.1795H18.0657Z" fill="#B3FD09"/>
</g>
<defs>
<filter id="filter0_i_51_5339" x="13.2979" y="11.5789" width="7.36816" height="7.36841" filterUnits="userSpaceOnUse" color-interpolation-filters="sRGB">
<feFlood flood-opacity="0" result="BackgroundImageFix"/>
<feBlend mode="normal" in="SourceGraphic" in2="BackgroundImageFix" result="shape"/>
<feColorMatrix in="SourceAlpha" type="matrix" values="0 0 0 0 0 0 0 0 0 0 0 0 0 0 0 0 0 0 127 0" result="hardAlpha"/>
<feOffset dy="1"/>
<feComposite in2="hardAlpha" operator="arithmetic" k2="-1" k3="1"/>
<feColorMatrix type="matrix" values="0 0 0 0 0 0 0 0 0 0 0 0 0 0 0 0 0 0 0.5 0"/>
<feBlend mode="normal" in2="shape" result="effect1_innerShadow_51_5339"/>
</filter>
<clipPath id="clip0_51_5339">
<rect width="20" height="20" fill="white" transform="translate(0.666016)"/>
</clipPath>
</defs>
</svg>
